<?xml version="1.0" ?>
<!DOCTYPE svg  PUBLIC '-//W3C//DTD SVG 1.1//EN'  'http://www.w3.org/Graphics/SVG/1.1/DTD/svg11.dtd'>
<svg enable-background="new 0 0 800 800" height="800px" id="Layer_1" version="1.1" viewBox="0 0 800 800" width="800px" xml:space="preserve" xmlns="http://www.w3.org/2000/svg" xmlns:xlink="http://www.w3.org/1999/xlink">
    <g>
        <path d="M402.563,622.157c7.891,1.255,14.785,7.192,21.092,18.116c3.975,6.902,12.807,9.267,19.692,5.293   c6.895-3.974,9.268-12.79,5.285-19.692c-10.771-18.679-24.736-29.507-41.517-32.193c-35.331-5.599-70.862,26.209-102.194,54.315   c-12.355,11.068-24.02,21.525-32.137,26.096c-17.094,9.589-31.96,11.599-40.744,5.566c-2.269-1.561-3.716-3.362-4.593-4.939   c6.355-0.096,12.115-4.408,13.755-10.86c1.963-7.722-2.695-15.573-10.417-17.536c-15.187-3.861-25.403,3.138-29.892,10.988   c-6.782,11.874-3.25,29.008,8.406,40.752c4.223,4.264,15.896,13.82,35.419,13.82c11.374-0.016,25.403-3.249,42.168-12.646   c10.899-6.129,23.126-17.085,37.277-29.779C348.071,648.027,380.763,618.682,402.563,622.157z" fill="#ffffff"/>
        <path d="M572.611,624.41c7.891,1.255,14.792,7.191,21.091,18.115c3.982,6.902,12.799,9.267,19.685,5.293   c6.901-3.974,9.268-12.789,5.293-19.692c-6.901-11.969-15.146-20.689-24.584-26.127c0.098-0.676,0.21-1.335,0.21-2.027l0.089-109.9   c33.496-0.307,67.001-0.596,100.393-1.063c7.956-0.128,14.326-6.661,14.214-14.624c-0.113-7.964-6.42-14.222-14.624-14.207   c-8.254,0.113-16.556,0.146-24.809,0.242V315.592c13.449,6.805,28.508,12.178,45.305,15.718v64.98   c0,8.222,6.451,14.915,14.415,14.915c7.956,0,14.415-6.692,14.415-14.915v-60.943c1.706,0.129,3.38,0.307,5.117,0.403   c0.272,0.015,0.539,0.015,0.804,0.015c7.594,0,13.966-5.936,14.383-13.61c0.442-7.947-5.647-14.752-13.595-15.188   c-122.265-6.789-155.383-116.175-155.688-179.901c0-0.065,0-0.113,0-0.161c0-0.063-0.016-0.128-0.016-0.193l0.024-26.401   c0.008-7.963-6.443-14.415-14.407-14.431c0,0,0,0-0.008,0c-7.956,0-14.407,6.452-14.415,14.399l-0.024,27.044   c-0.104,52.642-19.452,103.175-51.837,135.223c-30.07,29.781-70.613,44.727-121.09,44.115   c-119.852-1.207-164.255-105.557-165.326-177.102c0.008-0.869,0.065-1.787,0.065-2.639c0-0.386-0.08-0.724-0.105-1.095v-25.532   c0-7.963-6.459-14.415-14.415-14.415c-7.964,0-14.416,6.452-14.416,14.415v26.53c0,0.017-0.015,0.048-0.015,0.08   c0,0.129,0.015,0.274,0.015,0.418v3.974c-1.109,39.385-16.506,96.772-57.178,135.626c-30.012,28.67-68.915,42.135-115.427,40.092   c-8.101-0.418-14.697,5.808-15.042,13.755c-0.362,7.964,5.799,14.689,13.764,15.042c3.587,0.161,7.136,0.242,10.65,0.242   c35.203,0,66.486-8.189,93.684-24.084v147.805c-16.82-0.258-33.737-0.402-50.51-0.708c-7.795-0.112-14.52,6.194-14.665,14.157   c-0.145,7.965,6.194,14.528,14.15,14.674c40.036,0.724,80.322,1.143,120.575,1.607v112.781   c-21.622,10.474-42.683,29.33-62.117,46.754c-12.356,11.084-24.02,21.542-32.145,26.096c-17.086,9.589-31.944,11.615-40.752,5.566   c-2.269-1.561-3.716-3.363-4.585-4.955c6.347-0.081,12.098-4.409,13.74-10.86c1.962-7.706-2.695-15.558-10.41-17.521   c-15.204-3.861-25.403,3.138-29.892,10.973c-6.781,11.873-3.25,29.023,8.415,40.768c4.215,4.264,15.896,13.82,35.427,13.82   c11.366,0,25.396-3.233,42.16-12.646c10.9-6.114,23.128-17.086,37.285-29.78c23.907-21.429,56.696-50.727,78.383-47.3   c7.9,1.255,14.793,7.191,21.091,18.116c3.974,6.902,12.791,9.267,19.693,5.292c6.894-3.973,9.267-12.79,5.285-19.692   c-10.771-18.678-24.736-29.505-41.517-32.177c-3.749-0.611-7.489-0.691-11.23-0.498V489.894   c64.242,0.645,128.627,1.062,193.094,1.062c48.313,0,96.628-0.209,144.885-0.578l-0.088,105.089   c-31.413,1.916-62.625,29.78-90.506,54.782c-12.349,11.069-24.012,21.525-32.129,26.096c-17.094,9.572-31.943,11.6-40.745,5.566   c-2.268-1.561-3.716-3.362-4.592-4.938c6.346-0.097,12.106-4.408,13.747-10.86c1.963-7.723-2.694-15.574-10.409-17.537   c-15.211-3.86-25.403,3.139-29.893,10.974c-6.789,11.873-3.249,29.023,8.399,40.768c4.231,4.263,15.896,13.805,35.426,13.805   c11.376,0,25.404-3.234,42.169-12.646c10.9-6.113,23.119-17.069,37.277-29.764C518.11,650.281,550.818,620.967,572.611,624.41z    M594.611,241.118c11.245,20.707,26.337,40.093,46.126,55.908v163.7c-15.429,0.177-30.866,0.338-46.319,0.467L594.611,241.118z    M198.754,460.741c-13.603-0.16-27.141-0.386-40.72-0.563V292.296c0-0.483-0.096-0.934-0.145-1.4   c1.19-1.078,2.446-2.011,3.604-3.122c15.413-14.72,27.672-31.71,37.261-49.471V460.741z M270.058,292.296v169.121   c-14.158-0.113-28.339-0.145-42.474-0.289V238.624c10.763,19.596,24.801,37.905,42.515,53.237   C270.091,292.005,270.058,292.15,270.058,292.296z M344.194,461.852c-15.114-0.064-30.214-0.177-45.305-0.273V312.02   c13.531,7.546,28.565,13.611,45.305,17.649V461.852z M418.33,462.013c-15.115,0-30.206,0.032-45.306,0v-127.63   c6.363,0.611,12.863,1.046,19.637,1.111c0.941,0,1.867,0.015,2.8,0.015c7.827,0,15.42-0.418,22.869-1.078V462.013z    M492.466,461.852c-15.106,0.064-30.206,0.08-45.306,0.097V329.83c16.201-3.653,31.356-9.042,45.306-16.314V461.852z    M565.588,461.498c-14.77,0.097-29.515,0.209-44.292,0.289V294.676c4.489-3.652,8.857-7.513,13.032-11.648   c12.146-12.018,22.693-26.224,31.453-41.927L565.588,461.498z" fill="#ffffff"/>
        <path d="M786.982,627.081c-10.765-18.679-24.744-29.522-41.525-32.193c-35.347-5.646-70.846,26.209-102.179,54.298   c-12.355,11.069-24.02,21.543-32.144,26.096c-17.086,9.589-31.936,11.617-40.753,5.566c-2.252-1.544-3.7-3.345-4.584-4.938   c6.354-0.08,12.113-4.408,13.754-10.859c1.963-7.707-2.702-15.558-10.416-17.521c-15.18-3.878-25.396,3.137-29.885,10.973   c-6.789,11.873-3.257,29.008,8.398,40.769c4.216,4.247,15.896,13.804,35.427,13.804c11.358,0,25.388-3.234,42.152-12.646   c10.908-6.113,23.135-17.087,37.293-29.781c23.899-21.429,56.6-50.79,78.391-47.299c7.892,1.271,14.793,7.19,21.092,18.131   c3.982,6.886,12.799,9.251,19.685,5.277C788.59,642.783,790.955,633.967,786.982,627.081z" fill="#ffffff"/>
    </g>
</svg>
